<?xml version="1.0" encoding="UTF-8"?>
<svg xmlns="http://www.w3.org/2000/svg" viewBox="0 0 128 64" role="img" aria-label="Hubelt butterfly logo">
  <title>Hubelt butterfly logo</title>
  <g stroke="currentColor" stroke-width="2" fill="none" stroke-linejoin="miter" stroke-linecap="square">
    <line x1="64" y1="10" x2="64" y2="54"/>
    <line x1="64" y1="10" x2="58" y2="4"/>
    <line x1="64" y1="10" x2="70" y2="4"/>
    <polygon points="64,18 22,6 30,26 64,30" fill="currentColor" fill-opacity="0.08"/>
    <polygon points="64,30 30,38 22,58 64,46" fill="currentColor" fill-opacity="0.18"/>
    <polygon points="64,18 106,6 98,26 64,30" fill="currentColor" fill-opacity="0.08"/>
    <polygon points="64,30 98,38 106,58 64,46" fill="currentColor" fill-opacity="0.18"/>
    <line x1="64" y1="30" x2="44" y2="22"/>
    <line x1="64" y1="30" x2="84" y2="22"/>
    <line x1="64" y1="46" x2="44" y2="50"/>
    <line x1="64" y1="46" x2="84" y2="50"/>
  </g>
</svg>
