<?xml version="1.0" encoding="UTF-8"?>
<svg id="Layer_1" data-name="Layer 1" xmlns="http://www.w3.org/2000/svg" viewBox="0 0 2014.87 551.84">
  <defs>
    <style>
      .cls-1 {
        fill: #111828;
      }

      .cls-1, .cls-2 {
        stroke-width: 0px;
      }

      .cls-2 {
        fill: #ee4443;
      }
    </style>
  </defs>
  <path class="cls-1" d="M275.92,551.84c-1.53,0-3.06-.01-4.59-.04l1.17-71.79c1.14.02,2.28.03,3.42.03,46.81,0,90.83-15.4,127.3-44.55l44.82,56.1c-48.63,38.86-109.76,60.26-172.13,60.26ZM214.72,545.02c-62.24-14.1-118.11-49.83-157.31-100.6l56.83-43.88c29.02,37.59,70.34,64.03,116.34,74.45l-15.87,70.03ZM488.68,451.61l-55.34-45.75c30.12-36.43,46.7-82.58,46.7-129.95v-.54h71.8v.54c0,64.02-22.43,126.42-63.16,175.69ZM27.4,395.93C9.22,358.33,0,317.96,0,275.92c0-22.19,2.65-44.29,7.87-65.67l69.75,17.04c-3.86,15.81-5.82,32.18-5.82,48.64,0,31.12,6.81,60.98,20.24,88.75l-64.64,31.26ZM475.62,233.47c-9.75-46.14-35.59-87.84-72.76-117.4l44.7-56.2c50.2,39.93,85.12,96.31,98.32,158.75l-70.25,14.85ZM91.84,187.61l-64.71-31.11C54.84,98.85,102.05,52.31,160.07,25.43l30.18,65.15c-42.95,19.89-77.9,54.35-98.42,97.02ZM367.3,93.34c-28.49-14.29-59.23-21.54-91.38-21.54-15.47,0-30.88,1.73-45.79,5.15L214.09,6.96c20.17-4.62,40.97-6.96,61.83-6.96,43.43,0,85,9.81,123.57,29.16l-32.2,64.18Z"/>
  <g>
    <polygon class="cls-2" points="251.46 250.09 300.38 250.09 324.41 152.69 227.43 152.69 251.46 250.09"/>
    <g>
      <rect class="cls-2" x="201.29" y="289.92" width="148.42" height="32.05"/>
      <rect class="cls-2" x="202.13" y="362.44" width="148.42" height="32.05"/>
    </g>
  </g>
  <g>
    <path class="cls-1" d="M865.36,142.15v264.41h-73.51v-106.14h-89.64v106.14h-73.51V142.15h73.51v99.39h89.64v-99.39h73.51Z"/>
    <path class="cls-1" d="M979.38,142.15v153.39c0,14.25,3.31,25.26,9.94,33,6.62,7.75,16.69,11.63,30.19,11.63s23.69-3.94,30.57-11.81c6.87-7.88,10.31-18.81,10.31-32.82v-153.39h73.51v153.39c0,24.26-5.13,44.95-15.38,62.07-10.25,17.13-24.19,30-41.82,38.63-17.63,8.63-37.19,12.94-58.7,12.94s-40.69-4.31-57.57-12.94c-16.88-8.63-30.13-21.44-39.75-38.44-9.63-17-14.44-37.75-14.44-62.26v-153.39h73.13Z"/>
    <path class="cls-1" d="M1380.11,293.85c9.12,11.88,13.69,25.44,13.69,40.69,0,22.5-7.75,40.13-23.25,52.88-15.51,12.75-37.26,19.13-65.26,19.13h-130.89V142.15h126.76c27,0,48.19,6,63.57,18,15.38,12,23.07,28.88,23.07,50.63,0,15.51-4.07,28.45-12.19,38.82-8.13,10.38-18.94,17.44-32.44,21.19,15.5,3.5,27.81,11.19,36.94,23.07ZM1247.91,247.16h37.13c18.5,0,27.75-7.62,27.75-22.88s-9.25-23.63-27.75-23.63h-37.13v46.51ZM1318.42,324.05c0-8-2.44-14.12-7.31-18.38-4.88-4.25-11.81-6.38-20.82-6.38h-42.38v48.01h42.76c18.5,0,27.75-7.75,27.75-23.25Z"/>
    <path class="cls-1" d="M1499.56,201.03v43.13h84.39v55.88h-84.39v47.63h95.64v58.88h-169.15V142.15h169.15v58.88h-95.64Z"/>
    <path class="cls-1" d="M1705.08,350.3h82.13v56.26h-155.64V142.15h73.51v208.15Z"/>
    <path class="cls-1" d="M2014.87,142.15v58.51h-70.51v205.9h-73.51v-205.9h-69.76v-58.51h213.78Z"/>
  </g>
</svg>